# xmcd
#
# Track frame offsets: 
#        183
#        20783
#        37008
#        56520
#        72733
#        92370
#        107520
#        123420
#        141933
#        164208
#        181220
#        200458
#        217033
#        244908
#
# Disc length: 3463 seconds
#
# Revision: 8
# Processed by: cddbd v1.5.2PL0 Copyright (c) Steve Scherf et al.
# Submitted via: ExactAudioCopy v1.1
#
DISCID=d70d850e
DTITLE=James Cotton - Deep In The Blues
DYEAR=1996
DGENRE=Blues
TTITLE0=Down At Your Buryin'
TTITLE1=All Walks Of Life
TTITLE2=You Got My Nose Open
TTITLE3=Dealin' With The Devil
TTITLE4=Strange Things Happen
TTITLE5=Country Boy
TTITLE6=Vineyard Blues
TTITLE7=Worried Life Blues
TTITLE8=Two Trains Runnin'
TTITLE9=Ozark Mountain Railroad
TTITLE10=Sad Letter
TTITLE11=Play With Your Poodle
TTITLE12=Blues In My Sleep
TTITLE13=Everybody's Fishin'
EXTD=
EXTT0=
EXTT1=
EXTT2=
EXTT3=
EXTT4=
EXTT5=
EXTT6=
EXTT7=
EXTT8=
EXTT9=
EXTT10=
EXTT11=
EXTT12=
EXTT13=
PLAYORDER=
